<svg width="110" height="105" viewBox="0 0 110 105" fill="none" xmlns="http://www.w3.org/2000/svg">
<path d="M71.6295 0.598683L71.5824 5.71052C66.6841 8.38156 62.7906 9.71709 59.9019 9.71709C58.3319 9.71709 56.5265 9.30261 54.4855 8.47367L48.7395 6.12499C46.6043 5.26534 44.3593 4.83552 42.0043 4.83552C40.089 4.83552 38.3777 5.15788 36.8706 5.80262C35.3948 6.44736 33.5579 7.67542 31.36 9.48682L31.4542 4.05262C35.1593 1.35087 38.4248 0 41.2508 0C43.6685 0 46.1804 0.491227 48.7866 1.47368L54.6739 3.63815C57.0917 4.5592 59.2425 5.01973 61.1265 5.01973C63.8896 5.01973 67.3906 3.54605 71.6295 0.598683ZM71.5824 15.9342L71.5353 21.3684C67.3906 24.1622 63.9681 25.5592 61.2678 25.5592C58.7244 25.5592 56.0712 24.9912 53.3081 23.8552L47.7504 21.5986C45.9292 20.8618 43.9825 20.4934 41.9101 20.4934C40.0262 20.4934 38.3306 20.8618 36.8235 21.5986C35.3163 22.3048 33.4951 23.625 31.36 25.5592L31.3129 19.5723C35.1436 16.9013 38.6446 15.5658 41.8159 15.5658C43.7313 15.5658 45.2228 15.7193 46.2903 16.0263C47.3893 16.3333 49.9954 17.3465 54.1087 19.0658C56.7149 20.171 58.9285 20.7236 60.7497 20.7236C63.7012 20.7236 67.3121 19.1272 71.5824 15.9342Z" fill="#3B82F6"/>
<path d="M71.6295 0.598683L71.5824 5.71052C66.6841 8.38156 62.7906 9.71709 59.9019 9.71709C58.3319 9.71709 56.5265 9.30261 54.4855 8.47367L48.7395 6.12499C46.6043 5.26534 44.3593 4.83552 42.0043 4.83552C40.089 4.83552 38.3777 5.15788 36.8706 5.80262C35.3948 6.44736 33.5579 7.67542 31.36 9.48682L31.4542 4.05262C35.1593 1.35087 38.4248 0 41.2508 0C43.6685 0 46.1804 0.491227 48.7866 1.47368L54.6739 3.63815C57.0917 4.5592 59.2425 5.01973 61.1265 5.01973C63.8896 5.01973 67.3906 3.54605 71.6295 0.598683ZM71.5824 15.9342L71.5353 21.3684C67.3906 24.1622 63.9681 25.5592 61.2678 25.5592C58.7244 25.5592 56.0712 24.9912 53.3081 23.8552L47.7504 21.5986C45.9292 20.8618 43.9825 20.4934 41.9101 20.4934C40.0262 20.4934 38.3306 20.8618 36.8235 21.5986C35.3163 22.3048 33.4951 23.625 31.36 25.5592L31.3129 19.5723C35.1436 16.9013 38.6446 15.5658 41.8159 15.5658C43.7313 15.5658 45.2228 15.7193 46.2903 16.0263C47.3893 16.3333 49.9954 17.3465 54.1087 19.0658C56.7149 20.171 58.9285 20.7236 60.7497 20.7236C63.7012 20.7236 67.3121 19.1272 71.5824 15.9342Z" fill="#3B82F6"/>
<path d="M71.6295 3.17763L71.5824 8.28946C66.6841 10.9605 62.7906 12.296 59.9019 12.296C58.3319 12.296 56.5265 11.8816 54.4855 11.0526L48.7395 8.70393C46.6043 7.84428 44.3593 7.41446 42.0043 7.41446C40.089 7.41446 38.3777 7.73683 36.8706 8.38156C35.3948 9.0263 33.5579 10.2544 31.36 12.0658L31.4542 6.63157C35.1593 3.92982 38.4248 2.57894 41.2508 2.57894C43.6685 2.57894 46.1804 3.07017 48.7866 4.05262L54.6739 6.21709C57.0917 7.13814 59.2425 7.59867 61.1265 7.59867C63.8896 7.59867 67.3906 6.12499 71.6295 3.17763ZM71.5824 18.5131L71.5353 23.9473C67.3906 26.7412 63.9681 28.1381 61.2678 28.1381C58.7244 28.1381 56.0712 27.5701 53.3081 26.4342L47.7504 24.1776C45.9292 23.4407 43.9825 23.0723 41.9101 23.0723C40.0262 23.0723 38.3306 23.4407 36.8235 24.1776C35.3163 24.8837 33.4951 26.2039 31.36 28.1381L31.3129 22.1513C35.1436 19.4802 38.6446 18.1447 41.8159 18.1447C43.7313 18.1447 45.2228 18.2982 46.2903 18.6052C47.3893 18.9122 49.9954 19.9254 54.1087 21.6447C56.7149 22.75 58.9285 23.3026 60.7497 23.3026C63.7012 23.3026 67.3121 21.7061 71.5824 18.5131Z" fill="#3B82F6"/>
<path d="M37.7183 103.664L37.7654 98.5525C42.6637 95.8814 46.5572 94.5459 49.446 94.5459C51.0159 94.5459 52.8214 94.9603 54.8623 95.7893L60.6084 98.138C62.7435 98.9976 64.9886 99.4275 67.3435 99.4275C69.2589 99.4275 70.9701 99.1051 72.4773 98.4603C73.9531 97.8156 75.7899 96.5875 77.9879 94.7761L77.8937 100.21C74.1886 102.912 70.923 104.263 68.0971 104.263C65.6794 104.263 63.1674 103.772 60.5613 102.789L54.6739 100.625C52.2562 99.7038 50.1053 99.2432 48.2214 99.2432C45.4583 99.2432 41.9572 100.717 37.7183 103.664ZM37.7654 88.3288L37.8125 82.8946C41.9572 80.1007 45.3798 78.7038 48.0801 78.7038C50.6234 78.7038 53.2767 79.2718 56.0398 80.4077L61.5975 82.6643C63.4186 83.4012 65.3654 83.7696 67.4377 83.7696C69.3217 83.7696 71.0172 83.4012 72.5244 82.6643C74.0316 81.9582 75.8527 80.638 77.9879 78.7038L78.035 84.6906C74.2043 87.3617 70.7032 88.6972 67.5319 88.6972C65.6166 88.6972 64.1251 88.5437 63.0575 88.2367C61.9586 87.9297 59.3524 86.9165 55.2391 85.1972C52.633 84.0919 50.4193 83.5393 48.5982 83.5393C45.6466 83.5393 42.0357 85.1358 37.7654 88.3288Z" fill="#3B82F6"/>
<path d="M37.7183 101.822L37.7654 96.7103C42.6637 94.0393 46.5572 92.7038 49.446 92.7038C51.0159 92.7038 52.8214 93.1182 54.8623 93.9472L60.6084 96.2959C62.7435 97.1555 64.9886 97.5853 67.3435 97.5853C69.2589 97.5853 70.9701 97.263 72.4773 96.6182C73.9531 95.9735 75.7899 94.7454 77.9879 92.934L77.8937 98.3682C74.1886 101.07 70.923 102.421 68.0971 102.421C65.6794 102.421 63.1674 101.93 60.5613 100.947L54.6739 98.7827C52.2562 97.8617 50.1053 97.4011 48.2214 97.4011C45.4583 97.4011 41.9572 98.8748 37.7183 101.822ZM37.7654 86.4867L37.8125 81.0525C41.9572 78.2586 45.3798 76.8617 48.0801 76.8617C50.6234 76.8617 53.2767 77.4297 56.0398 78.5656L61.5975 80.8222C63.4186 81.5591 65.3654 81.9275 67.4377 81.9275C69.3217 81.9275 71.0172 81.5591 72.5244 80.8222C74.0316 80.1161 75.8527 78.7959 77.9879 76.8617L78.035 82.8485C74.2043 85.5196 70.7032 86.8551 67.5319 86.8551C65.6166 86.8551 64.1251 86.7016 63.0575 86.3946C61.9586 86.0876 59.3524 85.0744 55.2391 83.3551C52.633 82.2498 50.4193 81.6972 48.5982 81.6972C45.6466 81.6972 42.0357 83.2937 37.7654 86.4867Z" fill="#3B82F6"/>
<path d="M17.2527 12.0522L21.7568 14.648C21.6734 20.1314 20.9095 24.0961 19.4651 26.5422C18.6801 27.8716 17.4103 29.1932 15.6556 30.507L10.7024 34.1984C8.87342 35.5766 7.3702 37.2627 6.19273 39.2569C5.23505 40.8788 4.66494 42.489 4.48241 44.0876C4.31557 45.6596 4.48484 47.8291 4.99023 50.596L0.224245 47.7991C-0.316144 43.3108 0.120145 39.8702 1.53311 37.4772C2.74198 35.4299 4.43303 33.5484 6.60626 31.8328L11.467 27.9297C13.4917 26.3429 14.975 24.7519 15.917 23.1566C17.2985 20.8168 17.7438 17.1154 17.2527 12.0522ZM30.8119 19.7599L35.6014 22.5169C36.0036 27.4235 35.5296 31.0201 34.1794 33.3067C32.9077 35.4603 31.0781 37.4231 28.6904 39.1949L23.9129 42.7727C22.3497 43.9464 21.05 45.4107 20.0138 47.1656C19.0718 48.7609 18.5504 50.3808 18.4494 52.0255C18.3213 53.6548 18.58 55.857 19.2255 58.6322L13.8994 55.6786C13.449 51.0993 14.0167 47.4669 15.6023 44.7815C16.56 43.1596 17.4417 41.9734 18.2474 41.2229C19.0688 40.4458 21.2692 38.7456 24.8487 36.1221C27.1307 34.4679 28.727 32.8697 29.6375 31.3276C31.1133 28.8283 31.5048 24.9724 30.8119 19.7599Z" fill="#3B82F6"/>
<path d="M18.7599 13.1575L23.2639 15.7533C23.1805 21.2366 22.4167 25.2013 20.9723 27.6474C20.1873 28.9769 18.9175 30.2985 17.1628 31.6122L12.2095 35.3036C10.3806 36.6818 8.87736 38.3679 7.69989 40.3621C6.74221 41.984 6.17211 43.5942 5.98957 45.1928C5.82273 46.7649 5.992 48.9343 6.49739 51.7012L1.73141 48.9043C1.19102 44.416 1.62731 40.9754 3.04027 38.5824C4.24915 36.5351 5.9402 34.6537 8.11343 32.938L12.9742 29.0349C14.9988 27.4482 16.4821 25.8571 17.4241 24.2618C18.8057 21.922 19.2509 18.2206 18.7599 13.1575ZM32.319 20.8651L37.1086 23.6221C37.5107 28.5287 37.0367 32.1253 35.6866 34.4119C34.4149 36.5655 32.5852 38.5283 30.1975 40.3001L25.42 43.878C23.8568 45.0517 22.5572 46.5159 21.521 48.2708C20.579 49.8661 20.0575 51.4861 19.9566 53.1307C19.8284 54.76 20.0871 56.9623 20.7327 59.7374L15.4066 56.7838C14.9562 52.2045 15.5238 48.5722 17.1095 45.8867C18.0672 44.2648 18.9489 43.0786 19.7546 42.3281C20.576 41.551 22.7764 39.8508 26.3558 37.2273C28.6378 35.5731 30.2341 33.975 31.1447 32.4328C32.6205 29.9335 33.0119 26.0776 32.319 20.8651Z" fill="#3B82F6"/>
<path d="M0.297158 63.2166L4.84827 60.7006C9.66316 63.5129 12.7928 66.1421 14.2372 68.5882C15.0221 69.9176 15.5578 71.6537 15.844 73.7964L16.6368 79.8364C16.943 82.0743 17.6849 84.1903 18.8623 86.1844C19.82 87.8063 20.9612 89.0942 22.2858 90.0481C23.5947 90.9753 25.6008 91.9167 28.3042 92.8722L23.444 95.5096C19.1985 93.723 16.3693 91.6332 14.9563 89.2403C13.7474 87.193 12.9265 84.8203 12.4936 82.1222L11.467 76.0546C11.0739 73.5468 10.4064 71.4952 9.46441 69.8999C8.08284 67.5601 5.02709 65.3324 0.297158 63.2166ZM13.9034 55.5888L18.74 52.9115C23.2869 55.0243 26.2354 57.224 27.5856 59.5106C28.8572 61.6642 29.6808 64.1949 30.0562 67.1027L30.8364 72.9371C31.0944 74.8477 31.7414 76.6804 32.7776 78.4352C33.7196 80.0305 34.8937 81.2821 36.2999 82.1899C37.6789 83.1131 39.7588 83.9951 42.5395 84.8361L37.2605 87.8694C32.9794 85.9611 30.046 83.6642 28.4603 80.9788C27.5026 79.3569 26.8929 78.0172 26.631 76.9597C26.3534 75.8756 25.9477 73.1622 25.4139 68.8194C25.0897 66.06 24.4724 63.9092 23.5618 62.367C22.086 59.8677 18.8666 57.6083 13.9034 55.5888Z" fill="#3B82F6"/>
<path d="M2.5579 62.1113L7.10901 59.5953C11.9239 62.4075 15.0535 65.0367 16.4979 67.4829C17.2829 68.8123 17.8185 70.5484 18.1048 72.6911L18.8976 78.7311C19.2038 80.969 19.9456 83.085 21.1231 85.0791C22.0807 86.701 23.2219 87.9889 24.5465 88.9428C25.8554 89.87 27.8616 90.8114 30.5649 91.7669L25.7047 94.4043C21.4592 92.6177 18.63 90.5279 17.217 88.135C16.0082 86.0877 15.1873 83.715 14.7544 81.0169L13.7278 74.9493C13.3347 72.4415 12.6671 70.3899 11.7252 68.7946C10.3436 66.4548 7.28784 64.2271 2.5579 62.1113ZM16.1641 54.4834L21.0008 51.8062C25.5476 53.919 28.4962 56.1187 29.8463 58.4053C31.118 60.5589 31.9415 63.0896 32.317 65.9974L33.0972 71.8318C33.3551 73.7424 34.0022 75.5751 35.0384 77.3299C35.9803 78.9252 37.1544 80.1768 38.5606 81.0846C39.9396 82.0078 42.0195 82.8898 44.8002 83.7308L39.5212 86.7641C35.2401 84.8558 32.3067 82.5589 30.7211 79.8735C29.7634 78.2516 29.1536 76.9119 28.8918 75.8544C28.6142 74.7703 28.2085 72.0569 27.6746 67.7141C27.3505 64.9547 26.7331 62.8039 25.8225 61.2617C24.3468 58.7624 21.1273 56.503 16.1641 54.4834Z" fill="#3B82F6"/>
<path d="M108.939 40.7148L104.387 43.2308C99.5726 40.4186 96.4429 37.7894 94.9986 35.3432C94.2136 34.0138 93.678 32.2777 93.3917 30.135L92.5989 24.095C92.2927 21.8571 91.5509 19.7412 90.3734 17.747C89.4157 16.1251 88.2746 14.8372 86.9499 13.8834C85.641 12.9561 83.6349 12.0147 80.9316 11.0592L85.7917 8.42186C90.0372 10.2084 92.8665 12.2982 94.2794 14.6911C95.4883 16.7385 96.3092 19.1111 96.7421 21.8092L97.7687 27.8768C98.1618 30.3846 98.8293 32.4362 99.7713 34.0315C101.153 36.3713 104.209 38.599 108.939 40.7148ZM95.3323 48.3427L90.4957 51.0199C85.9488 48.9071 83.0003 46.7075 81.6501 44.4209C80.3785 42.2672 79.5549 39.7365 79.1795 36.8287L78.3993 30.9943C78.1413 29.0837 77.4943 27.251 76.4581 25.4962C75.5161 23.9009 74.342 22.6493 72.9358 21.7415C71.5568 20.8183 69.477 19.9363 66.6963 19.0954L71.9752 16.0621C76.2564 17.9703 79.1897 20.2672 80.7754 22.9526C81.7331 24.5745 82.3429 25.9142 82.6047 26.9717C82.8823 28.0558 83.288 30.7693 83.8219 35.112C84.146 37.8715 84.7633 40.0223 85.6739 41.5644C87.1497 44.0637 90.3692 46.3231 95.3323 48.3427Z" fill="#3B82F6"/>
<path d="M106.678 41.8201L102.127 44.3361C97.3119 41.5238 94.1822 38.8946 92.7379 36.4485C91.9529 35.1191 91.4173 33.383 91.131 31.2403L90.3382 25.2002C90.032 22.9624 89.2902 20.8464 88.1127 18.8523C87.155 17.2304 86.0139 15.9425 84.6892 14.9886C83.3803 14.0613 81.3742 13.1199 78.6709 12.1645L83.531 9.52712C87.7765 11.3137 90.6058 13.4034 92.0187 15.7964C93.2276 17.8437 94.0485 20.2164 94.4814 22.9145L95.508 28.982C95.9011 31.4899 96.5686 33.5414 97.5106 35.1368C98.8922 37.4765 101.948 39.7043 106.678 41.8201ZM93.0716 49.4479L88.235 52.1252C83.6881 50.0124 80.7396 47.8127 79.3894 45.5261C78.1178 43.3725 77.2942 40.8417 76.9188 37.934L76.1386 32.0995C75.8806 30.189 75.2336 28.3563 74.1974 26.6015C73.2554 25.0061 72.0813 23.7546 70.6751 22.8468C69.2961 21.9236 67.2163 21.0415 64.4356 20.2006L69.7146 17.1673C73.9957 19.0756 76.929 21.3724 78.5147 24.0579C79.4724 25.6798 80.0822 27.0195 80.344 28.077C80.6216 29.1611 81.0273 31.8745 81.5612 36.2172C81.8853 38.9767 82.5026 41.1275 83.4132 42.6697C84.889 45.169 88.1085 47.4284 93.0716 49.4479Z" fill="#3B82F6"/>
<path d="M91.983 92.616L87.479 90.0202C87.5623 84.5369 88.3262 80.5722 89.7706 78.126C90.5556 76.7966 91.8254 75.475 93.5801 74.1612L98.5333 70.4699C100.362 69.0917 101.866 67.4055 103.043 65.4114C104.001 63.7895 104.571 62.1793 104.753 60.5806C104.92 59.0086 104.751 56.8392 104.245 54.0723L109.011 56.8691C109.552 61.3575 109.116 64.7981 107.703 67.191C106.494 69.2383 104.803 71.1198 102.629 72.8354L97.7687 76.7385C95.7441 78.3253 94.2607 79.9164 93.3188 81.5117C91.9372 83.8514 91.4919 87.5529 91.983 92.616ZM78.4238 84.9084L73.6343 82.1514C73.2321 77.2448 73.7061 73.6482 75.0563 71.3616C76.328 69.2079 78.1577 67.2452 80.5453 65.4734L85.3228 61.8955C86.886 60.7218 88.1857 59.2575 89.2219 57.5027C90.1639 55.9074 90.6853 54.2874 90.7863 52.6427C90.9145 51.0134 90.6558 48.8112 90.0102 46.0361L95.3363 48.9896C95.7867 53.5689 95.2191 57.2013 93.6334 59.8868C92.6757 61.5086 91.794 62.6949 90.9883 63.4454C90.1669 64.2224 87.9665 65.9227 84.387 68.5461C82.105 70.2003 80.5087 71.7985 79.5982 73.3406C78.1224 75.84 77.731 79.6959 78.4238 84.9084Z" fill="#3B82F6"/>
<path d="M89.7223 91.5108L85.2183 88.915C85.3016 83.4316 86.0655 79.4669 87.5099 77.0208C88.2949 75.6914 89.5647 74.3698 91.3194 73.056L96.2726 69.3646C98.1016 67.9864 99.6048 66.3003 100.782 64.3061C101.74 62.6842 102.31 61.074 102.493 59.4754C102.659 57.9034 102.49 55.7339 101.985 52.967L106.751 55.7639C107.291 60.2522 106.855 63.6928 105.442 66.0858C104.233 68.1331 102.542 70.0145 100.369 71.7302L95.508 75.6333C93.4833 77.22 92 78.8111 91.0581 80.4064C89.6765 82.7462 89.2312 86.4476 89.7223 91.5108ZM76.1631 83.8031L71.3736 81.0462C70.9714 76.1395 71.4454 72.5429 72.7956 70.2563C74.0673 68.1027 75.897 66.1399 78.2846 64.3681L83.0621 60.7903C84.6253 59.6166 85.925 58.1523 86.9612 56.3974C87.9032 54.8021 88.4246 53.1822 88.5256 51.5375C88.6538 49.9082 88.395 47.706 87.7495 44.9308L93.0756 47.8844C93.526 52.4637 92.9584 56.0961 91.3727 58.7815C90.415 60.4034 89.5333 61.5896 88.7276 62.3401C87.9062 63.1172 85.7058 64.8174 82.1263 67.4409C79.8443 69.0951 78.248 70.6933 77.3375 72.2354C75.8617 74.7347 75.4703 78.5906 76.1631 83.8031Z" fill="#3B82F6"/>
</svg>
