<?xml version="1.0" encoding="UTF-8" standalone="no"?>
<svg
   width="190.40654"
   height="191.95459"
   viewBox="0 0 190.40654 191.95459"
   fill="none"
   version="1.1"
   id="svg23"
   sodipodi:docname="FC_accent_dark_bg.svg"
   inkscape:version="1.3 (0e150ed, 2023-07-21)"
   xmlns:inkscape="http://www.inkscape.org/namespaces/inkscape"
   xmlns:sodipodi="http://sodipodi.sourceforge.net/DTD/sodipodi-0.dtd"
   xmlns="http://www.w3.org/2000/svg"
   xmlns:svg="http://www.w3.org/2000/svg">
  <defs
     id="defs23" />
  <sodipodi:namedview
     id="namedview23"
     pagecolor="#ffffff"
     bordercolor="#000000"
     borderopacity="0.25"
     inkscape:showpageshadow="2"
     inkscape:pageopacity="0.0"
     inkscape:pagecheckerboard="0"
     inkscape:deskcolor="#d1d1d1"
     inkscape:zoom="0.60116448"
     inkscape:cx="686.16828"
     inkscape:cy="101.46973"
     inkscape:window-width="1648"
     inkscape:window-height="829"
     inkscape:window-x="0"
     inkscape:window-y="38"
     inkscape:window-maximized="0"
     inkscape:current-layer="svg23" />
  <g
     id="g33"
     transform="translate(-0.28613279)">
    <path
       d="m 110.417,23.1388 c -3.104,-0.3098 -5.875,-0.9481 -8.311,-1.9149 -2.4238,-1.0861 -4.7166,-2.2797 -6.878,-3.5808 -2.1615,-1.3011 -4.3946,-2.4888 -6.6993,-3.563 -2.3047,-1.0742 -4.9496,-1.7603 -7.9348,-2.0583 -3.4628,-0.3456 -6.5135,0.0132 -9.1521,1.0764 -2.5073,0.9557 -4.8295,2.4725 -6.9664,4.5506 L 57.847,9.75138 c 2.9964,-3.4394 6.387,-5.99528 10.1718,-7.66764 3.9161,-1.779852 8.3817,-2.419492 13.3968,-1.918921 3.4628,0.345633 6.466,1.067471 9.0095,2.165521 2.5435,1.09806 4.896,2.29764 7.0575,3.59875 2.1614,1.3011 4.3344,2.48281 6.5204,3.5451 2.197,0.94291 4.669,1.55141 7.415,1.82551 3.105,0.3099 5.911,-0.013 8.418,-0.9687 2.507,-0.95572 4.829,-2.47259 6.966,-4.55062 l 6.467,7.70042 c -2.877,3.4513 -6.213,6.0728 -10.01,7.8646 -3.785,1.6724 -8.065,2.2702 -12.842,1.7934 z"
       fill="#c467e0"
       id="path1" />
    <path
       d="m 110.375,51.7044 c -3.103,-0.3262 -5.87,-0.979 -8.301,-1.9584 -2.4184,-1.0988 -4.7049,-2.3044 -6.8595,-3.6168 -2.1546,-1.3125 -4.3814,-2.5118 -6.6805,-3.5981 -2.299,-1.0862 -4.9403,-1.7862 -7.9239,-2.0997 -3.461,-0.3638 -6.5135,-0.021 -9.1577,1.0284 -2.5123,0.9425 -4.8423,2.4472 -6.9901,4.514 l -6.587,-7.932 c 3.0144,-3.4236 6.4183,-5.9617 10.2119,-7.6142 3.9254,-1.7594 8.3943,-2.3756 13.4067,-1.8488 3.4609,0.3638 6.4602,1.1013 8.998,2.2127 2.5377,1.1113 4.8839,2.3232 7.0385,3.6356 2.1546,1.3124 4.3216,2.5055 6.5016,3.5792 2.192,0.9544 4.661,1.5758 7.406,1.8643 3.102,0.3262 5.91,0.018 8.422,-0.9246 2.513,-0.9426 4.843,-2.4472 6.991,-4.5141 l 6.426,7.7342 c -2.895,3.4362 -6.245,6.0402 -10.051,7.8121 -3.794,1.6525 -8.078,2.2279 -12.851,1.7262 z"
       fill="#c467e0"
       id="path2" />
    <path
       d="m 166.033,72.4861 c -1.284,-2.8436 -2.116,-5.5619 -2.497,-8.1549 -0.271,-2.6424 -0.384,-5.2248 -0.338,-7.7473 0.046,-2.5224 -0.042,-5.0501 -0.264,-7.5832 -0.222,-2.533 -0.95,-5.1667 -2.185,-7.9009 -1.432,-3.1716 -3.268,-5.6343 -5.508,-7.3878 -2.081,-1.6935 -4.556,-2.9461 -7.424,-3.7578 l 3.525,-9.689 c 4.477,0.8752 8.385,2.5336 11.726,4.9752 3.5,2.5016 6.286,6.0491 8.36,10.6425 1.432,3.1717 2.309,6.1335 2.63,8.8852 0.321,2.7518 0.458,5.3889 0.412,7.9114 -0.046,2.5224 0.017,4.9954 0.19,7.4191 0.282,2.3743 0.991,4.8192 2.127,7.3347 1.283,2.8435 2.966,5.1121 5.047,6.8056 2.082,1.6936 4.556,2.9462 7.425,3.7578 l -3.436,9.451 c -4.427,-0.7659 -8.366,-2.345 -11.816,-4.7372 -3.341,-2.4415 -5.999,-5.8497 -7.974,-10.2244 z"
       fill="#c467e0"
       id="path3" />
    <path
       d="m 141.273,86.7321 c -1.269,-2.8503 -2.087,-5.5729 -2.454,-8.1679 -0.258,-2.6438 -0.357,-5.2267 -0.297,-7.7489 0.059,-2.5222 -0.016,-5.0503 -0.225,-7.5845 -0.209,-2.5342 -0.923,-5.1716 -2.143,-7.9122 -1.416,-3.1791 -3.239,-5.6513 -5.47,-7.4166 -2.072,-1.7044 -4.54,-2.9699 -7.404,-3.7966 l 3.576,-9.6705 c 4.472,0.8987 8.372,2.5776 11.7,5.0366 3.486,2.5199 6.254,6.0819 8.304,10.6862 1.416,3.1791 2.277,6.1454 2.583,8.8988 0.306,2.7534 0.43,5.3912 0.371,7.9134 -0.06,2.5222 -0.009,4.9955 0.151,7.42 0.269,2.3758 0.966,4.8243 2.088,7.3457 1.269,2.8503 2.94,5.1276 5.012,6.8321 2.073,1.7044 4.541,2.9699 7.405,3.7966 l -3.485,9.4327 c -4.423,-0.789 -8.354,-2.3886 -11.791,-4.7988 -3.328,-2.4591 -5.968,-5.8811 -7.921,-10.2661 z"
       fill="#c467e0"
       id="path4" />
    <path
       d="m 151.105,145.324 c 1.821,-2.533 3.759,-4.613 5.814,-6.24 2.153,-1.556 4.333,-2.945 6.54,-4.166 2.208,-1.221 4.353,-2.561 6.435,-4.02 2.083,-1.459 4,-3.407 5.75,-5.843 2.031,-2.826 3.246,-5.647 3.644,-8.464 0.426,-2.649 0.274,-5.419 -0.457,-8.308 l 10.153,-1.792 c 1.481,4.315 1.999,8.529 1.555,12.643 -0.417,4.281 -2.096,8.468 -5.037,12.561 -2.031,2.826 -4.157,5.066 -6.38,6.72 -2.223,1.654 -4.438,3.091 -6.645,4.313 -2.208,1.221 -4.318,2.512 -6.331,3.874 -1.915,1.431 -3.678,3.267 -5.288,5.509 -1.821,2.533 -2.944,5.125 -3.37,7.774 -0.426,2.649 -0.274,5.419 0.457,8.309 l -9.902,1.75 c -1.55,-4.217 -2.152,-8.418 -1.806,-12.602 0.445,-4.114 2.067,-8.12 4.868,-12.018 z"
       fill="#c467e0"
       id="path5" />
    <path
       d="m 126.388,131.005 c 1.834,-2.524 3.783,-4.594 5.846,-6.21 2.161,-1.545 4.348,-2.922 6.562,-4.132 2.214,-1.209 4.366,-2.538 6.456,-3.986 2.091,-1.448 4.018,-3.385 5.781,-5.813 2.045,-2.815 3.275,-5.63 3.688,-8.444 0.44,-2.6475 0.302,-5.4177 -0.414,-8.3112 l 10.163,-1.7385 c 1.457,4.3224 1.954,8.5397 1.488,12.6507 -0.439,4.279 -2.14,8.458 -5.102,12.535 -2.046,2.816 -4.184,5.044 -6.416,6.686 -2.231,1.642 -4.454,3.068 -6.667,4.278 -2.214,1.21 -4.331,2.49 -6.351,3.841 -1.922,1.421 -3.695,3.248 -5.317,5.481 -1.834,2.524 -2.971,5.11 -3.411,7.757 -0.44,2.647 -0.302,5.417 0.414,8.311 l -9.911,1.698 c -1.528,-4.225 -2.108,-8.429 -1.74,-12.611 0.466,-4.111 2.109,-8.109 4.931,-11.992 z"
       fill="#c467e0"
       id="path6" />
    <path
       d="m 80.5612,168.816 c 3.1045,0.31 5.8748,0.948 8.3109,1.915 2.4241,1.086 4.7169,2.279 6.8783,3.58 2.1615,1.302 4.3946,2.489 6.6996,3.563 2.304,1.075 4.949,1.761 7.934,2.059 3.463,0.345 6.514,-0.014 9.153,-1.077 2.507,-0.955 4.829,-2.472 6.966,-4.55 l 6.628,7.897 c -2.996,3.439 -6.387,5.995 -10.171,7.668 -3.917,1.78 -8.382,2.419 -13.397,1.919 -3.463,-0.346 -6.466,-1.068 -9.01,-2.166 -2.5432,-1.098 -4.8957,-2.297 -7.0571,-3.599 -2.1615,-1.301 -4.3349,-2.482 -6.5202,-3.545 -2.1972,-0.943 -4.669,-1.551 -7.4153,-1.825 -3.1046,-0.31 -5.9106,0.013 -8.4179,0.969 -2.5073,0.955 -4.8294,2.472 -6.9664,4.55 l -6.4672,-7.7 c 2.8771,-3.452 6.2139,-6.073 10.0107,-7.865 3.7848,-1.672 8.0653,-2.27 12.8416,-1.793 z"
       fill="#c467e0"
       id="path7" />
    <path
       d="m 80.6036,140.25 c 3.1029,0.326 5.8699,0.979 8.3008,1.958 2.4184,1.099 4.7049,2.305 6.8595,3.617 2.1546,1.313 4.3811,2.512 6.6801,3.598 2.299,1.087 4.941,1.787 7.924,2.1 3.461,0.364 6.514,0.021 9.158,-1.028 2.512,-0.943 4.842,-2.448 6.99,-4.514 l 6.587,7.932 c -3.014,3.423 -6.418,5.961 -10.212,7.614 -3.925,1.759 -8.394,2.375 -13.406,1.849 -3.461,-0.364 -6.461,-1.102 -8.998,-2.213 -2.5382,-1.111 -4.8843,-2.323 -7.039,-3.636 -2.1546,-1.312 -4.3218,-2.505 -6.5015,-3.579 -2.1922,-0.954 -4.6608,-1.576 -7.4057,-1.864 -3.1029,-0.326 -5.9105,-0.018 -8.4227,0.924 -2.5123,0.943 -4.8424,2.448 -6.9902,4.515 l -6.4268,-7.735 c 2.8951,-3.436 6.2456,-6.04 10.0517,-7.812 3.7935,-1.652 8.0771,-2.228 12.8508,-1.726 z"
       fill="#c467e0"
       id="path8" />
    <path
       d="m 24.9453,119.468 c 1.2839,2.844 2.1163,5.562 2.4971,8.155 0.2714,2.643 0.3841,5.225 0.3381,7.748 -0.0461,2.522 0.0419,5.05 0.2639,7.583 0.2221,2.533 0.9504,5.166 2.1849,7.901 1.4321,3.171 3.2682,5.634 5.5083,7.387 2.0813,1.694 4.556,2.947 7.4241,3.758 l -3.5251,9.689 c -4.4769,-0.875 -8.3856,-2.533 -11.7263,-4.975 -3.4995,-2.501 -6.2862,-6.049 -8.3603,-10.642 -1.432,-3.172 -2.3085,-6.134 -2.6293,-8.886 -0.3208,-2.751 -0.4582,-5.389 -0.4121,-7.911 0.046,-2.522 -0.0173,-4.995 -0.19,-7.419 -0.282,-2.374 -0.9909,-4.819 -2.1267,-7.335 -1.2839,-2.843 -2.9665,-5.112 -5.04786,-6.805 -2.08132,-1.694 -4.55604,-2.947 -7.42415,-3.758 l 3.43515,-9.451 c 4.42744,0.766 8.36616,2.345 11.81626,4.737 3.3407,2.441 5.9987,5.85 7.974,10.224 z"
       fill="#c467e0"
       id="path9" />
    <path
       d="m 49.705,105.222 c 1.269,2.851 2.0871,5.573 2.4544,8.168 0.2576,2.644 0.3567,5.227 0.2975,7.749 -0.0593,2.522 0.0154,5.051 0.2242,7.585 0.2088,2.534 0.9233,5.171 2.1435,7.912 1.4155,3.179 3.2386,5.651 5.4695,7.416 2.0724,1.705 4.5405,2.97 7.4043,3.797 l -3.5758,9.671 c -4.4721,-0.899 -8.3722,-2.578 -11.7,-5.037 -3.4864,-2.52 -6.2545,-6.082 -8.3045,-10.686 -1.4154,-3.179 -2.2763,-6.146 -2.5827,-8.899 -0.3064,-2.753 -0.43,-5.391 -0.3707,-7.913 0.0592,-2.523 0.0089,-4.996 -0.1511,-7.42 -0.2696,-2.376 -0.9657,-4.825 -2.0883,-7.346 -1.269,-2.85 -2.9397,-5.128 -5.0122,-6.832 -2.0724,-1.705 -4.5405,-2.97 -7.4043,-3.7968 l 3.4846,-9.4328 c 4.4233,0.7891 8.3538,2.3887 11.7913,4.7989 3.3279,2.459 5.968,5.8807 7.9203,10.2657 z"
       fill="#c467e0"
       id="path10" />
    <path
       d="m 39.8733,46.63 c -1.8206,2.5337 -3.7585,4.6137 -5.8138,6.24 -2.1526,1.5563 -4.3327,2.9451 -6.5403,4.1664 -2.2075,1.2213 -4.3526,2.5614 -6.4352,4.0202 -2.0827,1.4588 -3.9993,3.4064 -5.7499,5.8426 -2.0308,2.8261 -3.2454,5.6475 -3.644,8.4642 -0.426,2.6492 -0.2734,5.4187 0.4577,8.3084 L 1.99431,85.4635 C 0.513905,81.1488 -0.00424553,76.9345 0.439854,72.8206 0.856526,68.5392 2.53539,64.352 5.47643,60.2591 c 2.03073,-2.826 4.15744,-5.0659 6.38017,-6.7196 2.2227,-1.6538 4.4378,-3.0913 6.6453,-4.3126 2.2075,-1.2214 4.3176,-2.5127 6.3302,-3.8741 1.9152,-1.4314 3.6781,-3.2678 5.2886,-5.5091 1.8207,-2.5337 2.944,-5.1252 3.37,-7.7744 0.426,-2.6493 0.2734,-5.4187 -0.4577,-8.3084 l 9.9023,-1.7506 c 1.5504,4.2173 2.1523,8.4178 1.8057,12.6018 -0.4441,4.1139 -2.0667,8.1199 -4.8677,12.0179 z"
       fill="#c467e0"
       id="path11" />
    <path
       d="m 64.5906,60.9495 c -1.8339,2.5242 -3.7827,4.594 -5.8464,6.2095 -2.1608,1.545 -4.3482,2.9223 -6.562,4.1321 -2.2139,1.2097 -4.366,2.5386 -6.4563,3.9865 -2.0902,1.4479 -4.017,3.3854 -5.7804,5.8124 -2.0455,2.8154 -3.2749,5.6304 -3.6882,8.445 -0.4399,2.647 -0.3018,5.4172 0.4142,8.3106 l -10.1628,1.7385 c -1.4577,-4.3223 -1.9538,-8.5393 -1.4882,-12.6508 0.4391,-4.2792 2.1399,-8.4575 5.1023,-12.5349 2.0455,-2.8154 4.1839,-5.0441 6.4152,-6.6862 2.2313,-1.6421 4.454,-3.068 6.6678,-4.2777 2.2139,-1.2098 4.3307,-2.4901 6.3505,-3.8409 1.9226,-1.4213 3.6951,-3.2485 5.3174,-5.4813 1.8338,-2.5242 2.9707,-5.1097 3.4106,-7.7567 0.4399,-2.647 0.3018,-5.4172 -0.4142,-8.3107 l 9.9113,-1.6987 c 1.5284,4.2253 2.1082,8.429 1.7397,12.6111 -0.4657,4.1115 -2.1091,8.1089 -4.9305,11.9922 z"
       fill="#c467e0"
       id="path12" />
  </g>
</svg>
